<?xml version="1.0" standalone="no"?>
<!DOCTYPE svg PUBLIC "-//W3C//DTD SVG 20010904//EN"
 "http://www.w3.org/TR/2001/REC-SVG-20010904/DTD/svg10.dtd">
<svg version="1.0" xmlns="http://www.w3.org/2000/svg"
 width="1042.000000pt" height="1042.000000pt" viewBox="0 0 1042.000000 1042.000000"
 preserveAspectRatio="xMidYMid meet">
<metadata>
Created by potrace 1.11, written by Peter Selinger 2001-2013
</metadata>
<g transform="translate(0.000000,1042.000000) scale(0.100000,-0.100000)"
fill="#000000" stroke="none">
<path d="M4919 10416 c-2 -2 -49 -6 -104 -10 -94 -6 -119 -8 -220 -21 -22 -2
-62 -7 -90 -10 -27 -4 -57 -8 -65 -10 -8 -2 -37 -7 -65 -11 -27 -3 -59 -8 -70
-10 -377 -71 -702 -163 -1030 -294 -1425 -567 -2537 -1752 -3018 -3215 -34
-104 -100 -331 -111 -385 -3 -14 -14 -63 -25 -110 -21 -89 -65 -339 -76 -425
-3 -27 -8 -63 -10 -80 -5 -31 -9 -77 -22 -235 -18 -218 -9 -740 17 -956 5 -43
12 -101 15 -129 3 -27 8 -61 10 -75 3 -14 7 -45 11 -70 3 -25 7 -52 10 -62 3
-9 9 -40 14 -70 15 -87 46 -227 75 -333 15 -55 28 -107 30 -115 10 -43 68
-226 95 -300 18 -47 40 -108 50 -136 82 -232 232 -536 435 -882 77 -131 283
-416 424 -587 164 -199 395 -436 580 -595 35 -30 74 -64 86 -75 25 -22 196
-156 265 -208 112 -83 319 -219 445 -291 44 -26 87 -51 95 -56 39 -24 375
-190 455 -225 50 -21 108 -46 130 -56 185 -80 688 -233 870 -265 17 -2 62 -11
100 -19 39 -8 86 -17 105 -20 19 -3 46 -7 60 -10 14 -3 45 -7 70 -10 25 -3 61
-7 80 -10 19 -3 60 -7 90 -10 30 -4 69 -8 85 -10 208 -26 784 -26 985 0 19 3
64 7 100 10 36 3 72 7 80 10 8 2 38 6 65 10 54 7 105 14 138 21 12 2 39 6 62
10 157 23 470 103 702 180 172 57 412 149 428 165 5 5 15 9 23 9 34 0 406 193
637 331 138 82 460 312 589 421 210 176 490 451 641 629 333 393 597 812 810
1284 30 67 103 246 116 285 4 14 22 63 39 110 62 170 157 520 189 695 11 58
15 81 26 135 2 14 7 45 10 70 4 25 8 56 10 70 2 14 6 44 9 68 3 23 8 59 11 80
33 248 40 866 11 1082 -2 14 -7 56 -10 93 -4 37 -9 76 -11 85 -1 9 -6 44 -10
77 -3 33 -10 78 -15 100 -5 22 -11 58 -14 80 -4 23 -9 52 -11 65 -15 68 -27
128 -31 150 -9 45 -83 329 -105 397 -36 117 -130 373 -182 498 -94 225 -385
770 -419 783 -4 2 -8 8 -8 13 0 10 -110 172 -179 264 -63 84 -183 237 -201
255 -8 9 -35 40 -60 70 -191 227 -497 515 -760 713 -52 40 -101 78 -108 84
-20 19 -316 213 -412 270 -375 223 -791 402 -1215 523 -146 41 -378 96 -480
114 -16 3 -57 10 -90 15 -63 11 -84 14 -205 30 -73 10 -169 21 -240 28 -49 4
-707 13 -711 9z"/>
</g>
</svg>
